PathFileType	4	(X/Y/Z)	C:/Users/beibeiliu/ov580/test_trc/capture2\sequence.33_training_dense_left.trc
DataRate	CameraRate	NumFrames	NumMarkers	Units	OrigDataRate	OrigDataStartFrame	OrigNumFrames
120	120	16	19	mm	120	169	336
Frame#	Time	ThumbCMC			ThumbMCP			ThumbIP			ThumbTip			IndexMCP			IndexPIP			IndexTip			MiddleMCP			MiddlePIP			MiddleTip			RingMCP			RingPIP			RingTip			PinkyMCP			PinkyPIP			PinkyTip			BackHand1			BackHand2			BackHand3	
		X0	Y0	Z0	X1	Y1	Z1	X2	Y2	Z2	X3	Y3	Z3	X4	Y4	Z4	X5	Y5	Z5	X6	Y6	Z6	X7	Y7	Z7	X8	Y8	Z8	X9	Y9	Z9	X10	Y10	Z10	X11	Y11	Z11	X12	Y12	Z12	X13	Y13	Z13	X14	Y14	Z14	X15	Y15	Z15	X16	Y16	Z16	X17	Y17	Z17	X18	Y18	Z18	
168	1.4	-151.106	30.4743	1.48337	-132.565	51.3335	-11.7454	-114.658	57.4277	-35.2654	-98.5249	60.6906	-53.3963	-128.19	11.6236	-64.9058	-104.967	22.2639	-84.6367	-83.2867	42.1972	-85.8042	-105.612	-0.234743	-62.7452	-82.5376	15.6615	-75.7314	-66.9137	49.1348	-62.9476	-86.1353	0.302956	-49.3088	-73.4865	26.7354	-49.0853	-81.5953	43.7383	-25.2603	-77.5221	-3.47454	-27.7587	-71.0361	26.526	-23.6752	-92.3216	35.0174	-5.93432	-122.166	-24.2333	-6.92194	-134.58	-25.5762	19.1124	-155.161	-7.22838	-7.24087	
169	1.40833	-155.519	33.444	5.67603	-132.424	50.1031	-12.8438	-116.974	58.9434	-34.0668	-101.818	62.9686	-48.3103	-125.054	15.067	-62.9169	-106.031	29.3674	-83.0751	-86.2869	50.2123	-82.6124	-100.504	2.46602	-57.5414	-81.1134	26.0916	-73.6255	-69.5473	54.2246	-60.893	-85.8277	3.89456	-43.8168	-67.5059	32.1236	-43.8083	-84.1289	50.6036	-15.9529	-75.9421	4.90933	-26.639	-68.176	32.0464	-17.3499	-92.8865	38.568	0.00116311	-118.364	-19.802	-5.3907	-134.369	-24.4327	20.1279	-149.255	-8.19648	-5.96565	
170	1.41667	-154.209	32.3262	2.29536	-137.945	56.8576	-10.7534	-123.599	65.9061	-29.245	-101.817	68.6326	-47.8165	-119.629	19.0334	-62.9689	-102.524	33.7171	-78.8273	-83.5546	58.3398	-76.5304	-96.0246	8.3084	-57.7872	-79.3756	34.1564	-70.7719	-69.5802	60.0949	-51.386	-77.9021	12.0611	-43.3413	-70.1362	42.2966	-39.2002	-85.04	53.9362	-15.6495	-70.4593	8.83525	-21.2769	-69.0913	37.0943	-17.228	-97.5592	39.7226	1.54988	-111.167	-17.9535	-2.57285	-127.682	-24.0775	21.5928	-146.519	-7.98762	-4.40855	
171	1.425	-156.427	31.957	4.27534	-138.237	55.4434	-8.40451	-122.534	66.9474	-28.807	-107.597	72.827	-41.9803	-118.494	23.7215	-62.405	-100.38	39.196	-75.1901	-84.2368	66.551	-71.6288	-95.4692	14.1429	-56.1722	-79.6461	37.2055	-66.9429	-74.7732	69.873	-46.8477	-80.7028	17.2955	-40.7642	-69.0335	44.8186	-38.088	-90.3007	57.6443	-10.0079	-70.5111	14.2442	-18.6368	-70.7773	44.9883	-13.1838	-96.029	44.1887	3.10404	-106.739	-14.4795	-5.43711	-127.562	-22.5548	22.8824	-147.069	-4.16799	-4.7266	
172	1.43333	-156.74	31.9042	4.71672	-144.615	60.2962	-7.78732	-127.409	71.2689	-27.7875	-111.669	82.5153	-41.6315	-120.403	26.2982	-57.9116	-101.244	45.0405	-74.4516	-90.1542	72.5002	-70.314	-94.2935	19.1608	-52.1121	-80.3621	46.4595	-64.4249	-78.8425	77.0885	-40.6318	-79.0067	25.1345	-41.4755	-72.7835	54.1342	-33.4901	-90.507	59.6837	-6.7955	-67.5756	20.8436	-16.1758	-73.8409	50.476	-8.63437	-102.05	43.4073	9.03787	-108.798	-10.212	-6.5053	-122.498	-20.234	20.6697	-141.297	-5.99989	-2.54488	
173	1.44167	-154.923	31.2098	4.53903	-142.276	59.0291	-7.4415	-130.862	77.884	-27.0641	-113.398	84.4021	-38.1789	-118.145	30.113	-56.5279	-101.558	55.3005	-73.289	-88.4701	78.244	-63.181	-94.3686	25.1561	-51.9359	-80.079	55.2118	-61.0681	-83.275	83.4233	-37.7224	-81.0499	28.5854	-36.7227	-71.3235	58.0549	-29.6024	-97.5341	63.7451	-6.45112	-69.725	27.4724	-17.5557	-77.0559	54.4082	-6.84151	-103.006	44.7156	10.9156	-110.099	-9.42648	-5.23196	-121.973	-15.6736	18.441	-143.554	-2.27506	-7.74983	
174	1.45	-155.346	33.5253	5.08277	-143.421	60.0529	-6.20733	-133.89	81.397	-24.3952	-114.719	86.5741	-35.4492	-122.622	35.1493	-56.2982	-102.084	59.1266	-69.4115	-92.5221	87.008	-58.3464	-94.6318	30.3541	-51.7866	-79.8973	61.0673	-57.2775	-81.061	85.3604	-36.4972	-77.1147	34.1868	-35.2464	-78.8474	64.1303	-27.6202	-99.0855	64.0149	-2.05259	-69.5894	32.2612	-15.3664	-78.5982	58.0647	-5.9181	-104.177	46.6496	10.8994	-104.679	-7.41722	-6.29398	-120.869	-16.3393	19.1499	-142.877	-0.947996	-5.75494	
175	1.45833	-157.675	34.51	8.90469	-147.606	65.8837	-4.20679	-134.462	82.6366	-19.4815	-119.851	96.7432	-33.0415	-118.521	39.4455	-54.7633	-107.815	62.5447	-70.0065	-96.295	91.6763	-57.7631	-93.8731	35.121	-51.5027	-79.6938	62.0431	-56.6439	-83.9456	91.5487	-31.0067	-79.7553	39.3367	-33.8443	-80.8662	68.5925	-24.2745	-100.009	68.0472	-0.602594	-69.0264	37.1186	-13.9246	-79.0953	60.7768	-1.51966	-106.741	49.7106	12.5173	-108.841	-3.6442	-2.57916	-123.027	-12.4912	18.1977	-143.317	1.69726	-4.47649	
176	1.46667	-156.614	39.0601	6.04704	-148.684	68.79	-2.02126	-137.483	87.1521	-16.2643	-121.548	99.8722	-29.4557	-118.771	43.7271	-53.6651	-103.015	70.1802	-65.4809	-95.6399	94.5528	-54.4575	-93.867	40.4915	-50.1717	-82.6109	67.9927	-55.0397	-85.8666	97.6153	-29.0526	-79.0133	43.4849	-31.5996	-76.6548	71.8902	-20.1221	-103.979	68.4283	3.37858	-73.5237	41.1326	-14.1464	-81.6689	64.478	4.15569	-106.99	50.637	15.3078	-105.928	-1.03212	-3.45703	-120.879	-11.2471	18.4145	-142.098	5.1771	-7.93411	
177	1.475	-160.84	40.9202	7.03344	-150.6	71.4771	-0.73256	-140.26	88.7424	-13.6946	-120.069	102.081	-28.3127	-119.981	49.6446	-56.5219	-104.604	73.3593	-65.2643	-97.6386	101.862	-50.2874	-95.5296	43.5732	-46.9313	-80.8494	76.0138	-50.6742	-84.2415	98.6588	-26.2782	-81.3619	48.8507	-32.7169	-77.1789	75.0443	-19.0993	-104.034	71.3279	5.82775	-70.6043	41.2625	-8.72767	-80.3658	67.0511	6.13271	-108.28	51.0232	17.4382	-103.381	2.85603	-6.19925	-119.491	-10.1329	22.0156	-140.6	5.11949	-5.15562	
178	1.48333	-160.714	42.637	7.72464	-147.95	69.5942	0.330796	-140.874	94.3181	-14.5189	-124.466	107.398	-24.6148	-120.971	51.691	-51.8534	-103.259	76.0002	-63.2616	-97.5188	106.96	-48.5594	-95.8154	50.5149	-50.0068	-83.1199	80.7072	-48.9988	-86.803	103.155	-23.9162	-81.3452	50.4417	-30.3183	-76.9685	79.1762	-13.794	-103.719	75.848	6.44875	-69.7734	48.3543	-7.52647	-81.254	69.5957	5.41349	-109.106	55.4878	16.3973	-101.825	5.22788	-3.24758	-121.117	-7.12649	17.0996	-141.961	7.83852	-6.03364	
179	1.49167	-161.233	42.8419	10.9944	-153.462	71.457	5.04408	-139.753	93.7116	-10.5014	-124.986	106.31	-19.5197	-117.646	56.3843	-53.1173	-108.152	78.8378	-63.0666	-94.1958	104.374	-47.4681	-97.2307	51.2183	-46.153	-83.0401	79.5396	-48.8933	-84.6129	104.248	-22.2249	-77.8717	51.7694	-25.4193	-78.1919	80.7156	-15.2757	-103.389	77.0401	9.9506	-69.8673	51.4147	-5.7519	-84.2993	72.5812	8.62771	-108.424	56.995	20.0994	-103.696	6.22653	-0.903268	-122.773	-4.91801	20.9036	-140.972	9.0781	-2.75133	
180	1.5	-159.465	44.7148	10.3706	-153.712	73.9642	5.95947	-139.775	99.1197	-11.5662	-120.156	110.142	-20.6852	-117.016	55.8306	-47.959	-103.264	84.2435	-58.2739	-97.3536	110.878	-44.9274	-95.6482	56.6083	-47.0226	-82.4553	86.1734	-46.2794	-85.7487	108.343	-19.4566	-76.5558	57.9398	-26.4756	-79.1706	83.5247	-14.8786	-103.232	78.378	12.5322	-73.6958	53.716	-6.82869	-82.9466	74.3806	9.72075	-108.406	59.9582	22.623	-106.865	9.89248	-5.30502	-118.908	-5.07987	16.5582	-138.399	12.4158	-1.63883	
181	1.50833	-157.558	46.195	10.8437	-152.785	79.4009	3.88417	-142.354	99.5137	-7.72603	-121.952	112.8	-19.1347	-117.441	62.0256	-51.0521	-104.746	84.6986	-56.903	-98.6183	115.275	-40.1305	-94.6952	56.708	-44.0858	-84.0082	85.3848	-46.6274	-84.7574	110.316	-15.3888	-78.4233	56.1636	-22.7198	-81.1672	86.6604	-7.68774	-102.199	80.1316	13.7336	-70.2326	51.347	-2.89305	-85.2745	75.5709	10.4555	-109.266	59.3619	24.8183	-106.756	11.1817	-4.43755	-120.785	-3.59844	21.1272	-136.565	14.989	-5.28419	
182	1.51667	-158.953	46.1036	14.5352	-152.254	80.1303	6.78799	-140.012	102.875	-6.04049	-123.609	114.905	-14.6626	-118.852	62.5744	-47.4551	-105.506	88.0002	-55.8129	-96.5826	116.759	-37.7592	-95.4533	59.3815	-43.5617	-80.4803	91.1522	-41.5554	-82.6475	110.332	-16.9964	-81.7867	63.582	-24.4642	-81.2335	87.8377	-6.41362	-104.432	78.0939	18.6431	-71.6758	56.174	-3.30896	-79.6769	75.9793	16.2898	-108.181	58.95	26.2	-104.89	12.7183	-1.59393	-122.737	-2.61533	20.6187	-139.543	16.2709	-2.75585	
183	1.525	-158.044	47.3082	13.2271	-152.616	81.6651	8.54409	-140.023	103.091	-3.51341	-117.673	112.787	-12.1272	-115.463	65.4522	-46.6285	-105.379	96.3935	-53.435	-97.644	118.469	-37.5568	-93.6578	58.6175	-39.4684	-79.5969	92.8869	-39.1732	-84.5385	113.232	-11.4154	-79.977	62.0781	-21.1397	-78.58	88.8579	-2.51745	-102.891	82.5163	17.8425	-70.9618	54.7267	-1.08918	-83.7168	77.3309	14.5794	-109.358	65.6635	27.3131	-109.35	13.7667	-1.11404	-120.566	-3.05723	20.5888	-140.476	16.2694	-1.30559	
